<svg width="17" height="17" fill="none" xmlns="http://www.w3.org/2000/svg"><path d="M12.459 2.375h3.167a.791.791 0 0 1 .791.792v12.666a.792.792 0 0 1-.791.792H1.376a.792.792 0 0 1-.792-.792V3.167a.792.792 0 0 1 .792-.792h3.166V.792h1.584v1.583h4.75V.792h1.583v1.583Zm2.375 6.333H2.167v6.334h12.667V8.708Zm-3.958-4.75h-4.75v1.584H4.542V3.958H2.167v3.167h12.667V3.958h-2.375v1.584h-1.583V3.958ZM3.75 10.292h1.583v1.583H3.751v-1.583Zm3.958 0h1.583v1.583H7.71v-1.583Zm3.958 0h1.584v1.583h-1.584v-1.583Z" fill="#4440F7"/></svg>