<svg xmlns="http://www.w3.org/2000/svg" width="20" height="20" fill="none"><g clip-path="url('#a')"><path fill="#fff" d="M14.166 2.5H17.5a.833.833 0 0 1 .833.833v13.334a.833.833 0 0 1-.833.833h-15a.834.834 0 0 1-.833-.833V3.333A.833.833 0 0 1 2.5 2.5h3.333V.833H7.5V2.5h5V.833h1.666V2.5Zm2.5 6.667H3.333v6.666h13.333V9.167Zm-4.166-5h-5v1.666H5.833V4.167h-2.5V7.5h13.334V4.167h-2.5v1.666H12.5V4.167ZM5 10.833h1.667V12.5H5v-1.667Zm4.166 0h1.667V12.5H9.166v-1.667Zm4.167 0H15V12.5h-1.667v-1.667Z"/></g><defs><clipPath id="a"><path fill="#fff" d="M0 0h20v20H0z"/></clipPath></defs></svg>