<svg width="17" height="17" viewBox="0 0 17 17" fill="none" xmlns="http://www.w3.org/2000/svg">
<path d="M12.459 2.37508H15.6257C15.8356 2.37508 16.037 2.45849 16.1854 2.60696C16.3339 2.75542 16.4173 2.95678 16.4173 3.16675V15.8334C16.4173 16.0434 16.3339 16.2447 16.1854 16.3932C16.037 16.5417 15.8356 16.6251 15.6257 16.6251H1.37565C1.16569 16.6251 0.964324 16.5417 0.815858 16.3932C0.667392 16.2447 0.583984 16.0434 0.583984 15.8334V3.16675C0.583984 2.95678 0.667392 2.75542 0.815858 2.60696C0.964324 2.45849 1.16569 2.37508 1.37565 2.37508H4.54232V0.791748H6.12565V2.37508H10.8757V0.791748H12.459V2.37508ZM14.834 8.70841H2.16732V15.0417H14.834V8.70841ZM10.8757 3.95841H6.12565V5.54175H4.54232V3.95841H2.16732V7.12508H14.834V3.95841H12.459V5.54175H10.8757V3.95841ZM3.75065 10.2917H5.33398V11.8751H3.75065V10.2917ZM7.70898 10.2917H9.29232V11.8751H7.70898V10.2917ZM11.6673 10.2917H13.2507V11.8751H11.6673V10.2917Z" fill="#4440F7"/>
</svg>
